HIERARCHY
ROOT Hips
{
	OFFSET 0.000000 0.000000 0.000000
	CHANNELS 6 Xposition Yposition Zposition Xrotation Yrotation Zrotation
	JOINT LeftUpLeg_virtual
	{
		OFFSET 0.000000 0.000000 0.000000
		CHANNELS 3 Xrotation Yrotation Zrotation
		JOINT LeftUpLeg
		{
			OFFSET 13.026900 -6.336304 -1.092800
			CHANNELS 3 Xrotation Yrotation Zrotation
			JOINT LeftLeg
			{
				OFFSET 0.524474 -46.096886 9.782700
				CHANNELS 3 Xrotation Yrotation Zrotation
				JOINT LeftFoot
				{
					OFFSET -0.524474 -53.427422 -12.948200
					CHANNELS 3 Xrotation Yrotation Zrotation
					JOINT LeftToeBase
					{
						OFFSET 0.192200 -14.009700 16.364100
						CHANNELS 3 Xrotation Yrotation Zrotation
						JOINT LeftToe_End
						{
							OFFSET -1.784700 -0.561700 9.474800
							CHANNELS 3 Xrotation Yrotation Zrotation
							End Site
							{
								OFFSET 0 0 0
							}
						}
					}
				}
			}
		}
	}
	JOINT RightUpLeg_virtual
	{
		OFFSET 0.000000 0.000000 0.000000
		CHANNELS 3 Xrotation Yrotation Zrotation
		JOINT RightUpLeg
		{
			OFFSET -12.883000 -6.336304 -1.092800
			CHANNELS 3 Xrotation Yrotation Zrotation
			JOINT RightLeg
			{
				OFFSET -0.524587 -46.096825 9.782800
				CHANNELS 3 Xrotation Yrotation Zrotation
				JOINT RightFoot
				{
					OFFSET 0.524587 -53.427383 -12.948300
					CHANNELS 3 Xrotation Yrotation Zrotation
					JOINT RightToeBase
					{
						OFFSET -0.192200 -14.009700 16.364100
						CHANNELS 3 Xrotation Yrotation Zrotation
						JOINT RightToe_End
						{
							OFFSET 1.784700 -0.561700 9.474800
							CHANNELS 3 Xrotation Yrotation Zrotation
							End Site
							{
								OFFSET 0 0 0
							}
						}
					}
				}
			}
		}
	}
	JOINT Spine_virtual
	{
		OFFSET 0.000000 0.000000 0.000000
		CHANNELS 3 Xrotation Yrotation Zrotation
		JOINT Spine
		{
			OFFSET 0.072000 7.257294 -0.789700
			CHANNELS 3 Xrotation Yrotation Zrotation
			JOINT Spine1
			{
				OFFSET 0.000000 12.508769 -0.658067
				CHANNELS 3 Xrotation Yrotation Zrotation
				JOINT Spine1_split
				{
					OFFSET 0.000000 12.508769 -0.658067
					CHANNELS 3 Xrotation Yrotation Zrotation
					JOINT Spine2
					{
						OFFSET 0.000000 12.508769 -0.658067
						CHANNELS 3 Xrotation Yrotation Zrotation
						JOINT Neck_virtual
						{
							OFFSET 0.000000 0.000000 0.000000
							CHANNELS 3 Xrotation Yrotation Zrotation
							JOINT Neck
							{
								OFFSET 0.000000 14.033295 7.520400
								CHANNELS 3 Xrotation Yrotation Zrotation
								JOINT Head
								{
									OFFSET 0.000000 8.198502 5.703100
									CHANNELS 3 Xrotation Yrotation Zrotation
									JOINT HeadTop_End
									{
										OFFSET 0.000000 17.760803 13.332701
										CHANNELS 3 Xrotation Yrotation Zrotation
										End Site
										{
											OFFSET 0 0 0
										}
									}
								}
							}
						}
						JOINT LeftShoulder_virtual
						{
							OFFSET 0.000000 0.000000 0.000000
							CHANNELS 3 Xrotation Yrotation Zrotation
							JOINT LeftShoulder
							{
								OFFSET 6.292450 5.785301 -0.669000
								CHANNELS 3 Xrotation Yrotation Zrotation
								JOINT LeftShoulder_split
								{
									OFFSET 6.292450 5.785301 -0.669000
									CHANNELS 3 Xrotation Yrotation Zrotation
									JOINT LeftArm
									{
										OFFSET 13.907140 -6.093903 1.965100
										CHANNELS 3 Xrotation Yrotation Zrotation
										JOINT LeftForeArm
										{
											OFFSET 34.140198 0.000000 0.000000
											CHANNELS 3 Xrotation Yrotation Zrotation
											JOINT LeftHand
											{
												OFFSET 40.960209 0.000000 0.000000
												CHANNELS 3 Xrotation Yrotation Zrotation
												End Site
												{
													OFFSET 0 0 0
												}
											}
										}
									}
								}
							}
						}
						JOINT RightShoulder_virtual
						{
							OFFSET 0.000000 0.000000 0.000000
							CHANNELS 3 Xrotation Yrotation Zrotation
							JOINT RightShoulder
							{
								OFFSET -6.292450 5.785301 -0.669000
								CHANNELS 3 Xrotation Yrotation Zrotation
								JOINT RightShoulder_split
								{
									OFFSET -6.292450 5.785301 -0.669000
									CHANNELS 3 Xrotation Yrotation Zrotation
									JOINT RightArm
									{
										OFFSET -13.907140 -6.093903 1.965100
										CHANNELS 3 Xrotation Yrotation Zrotation
										JOINT RightForeArm
										{
											OFFSET -34.140198 0.000000 0.000000
											CHANNELS 3 Xrotation Yrotation Zrotation
											JOINT RightHand
											{
												OFFSET -40.960209 0.000000 0.000000
												CHANNELS 3 Xrotation Yrotation Zrotation
												End Site
												{
													OFFSET 0 0 0
												}
											}
										}
									}
								}
							}
						}
					}
				}
			}
		}
	}
}
MOTION
Frames: 8
Frame Time: 0.03333333
3.729479 102.549713 -8.579060 0.000000 0.000000 0.000000 -2.954653 -5.295248 -0.299291 -35.346174 24.089536 17.062101 46.237782 2.088170 4.842187 -7.823522 -0.624631 -9.998325 -2.008831 -0.159047 -0.512693 0.000000 0.000000 0.000000 -2.572831 -3.323518 -0.347974 -24.976475 -16.215040 -12.673307 43.462024 5.791969 -4.648447 -13.319462 -10.093461 23.039398 5.140088 1.121563 -15.151284 0.000000 0.000000 0.000000 -3.506315 2.385386 -1.117433 5.431562 -1.070643 -2.160494 8.355159 2.181901 -1.662087 0.178244 -1.186388 0.097727 0.000000 0.000000 0.000000 7.376084 5.058433 -0.717321 -10.482329 20.315727 14.323171 -37.218053 -51.803399 -20.588347 0.000000 0.000000 0.000000 5.517090 2.218517 -1.210932 -1.413926 -6.994649 12.975426 -0.760305 2.887682 -2.090739 -50.749473 -55.258256 -47.220291 0.692848 -49.402055 2.724073 0.000000 0.000000 0.000000 5.388003 2.227035 -0.997035 -3.770606 6.798461 4.250693 -5.510845 -6.026404 7.372286 -47.253581 72.464223 37.572509 -34.538641 46.363973 37.572782 0.000000 0.000000 0.000000 
3.670103 102.523026 -8.498585 0.000000 0.000000 0.000000 -2.892674 -5.330326 -0.294168 -35.454860 24.111507 17.037302 46.028976 2.151843 4.897869 -7.880834 -0.561521 -9.947131 -1.923590 -0.133816 -0.628964 0.000000 0.000000 0.000000 -2.527937 -3.219596 -0.346960 -24.975941 -16.293590 -12.684857 43.430902 5.777216 -4.620448 -13.466801 -10.141441 22.958993 5.536726 1.072850 -15.153041 0.000000 0.000000 0.000000 -3.564971 2.520792 -1.233407 5.427304 -1.050835 -2.099933 8.365469 2.194053 -1.683511 0.243331 -1.204816 0.102203 0.000000 0.000000 0.000000 7.323114 5.063660 -0.731136 -10.512921 20.181254 14.399499 -37.081514 -52.061478 -20.825566 0.000000 0.000000 0.000000 5.445483 2.257460 -1.198729 -1.499525 -6.826956 12.772386 -0.517424 2.888193 -1.814623 -50.226278 -55.232639 -47.002203 0.554277 -49.592262 2.582287 0.000000 0.000000 0.000000 5.454096 2.233920 -0.999486 -3.641902 6.886227 4.228487 -5.210207 -5.257224 6.937627 -47.511988 72.416910 37.653634 -34.000251 45.910257 37.066590 0.000000 0.000000 0.000000 
3.662457 102.493156 -8.450932 0.000000 0.000000 0.000000 -2.833867 -5.395505 -0.300307 -35.533212 24.012537 17.001582 45.913604 2.132337 4.959330 -7.906373 -0.589657 -9.989330 -1.728881 -0.103259 -0.851378 0.000000 0.000000 0.000000 -2.563233 -3.286199 -0.325351 -25.078161 -16.296348 -12.670537 43.404684 5.709834 -4.574373 -13.398216 -10.347583 22.848707 5.638037 1.030888 -14.989999 0.000000 0.000000 0.000000 -3.774874 2.689093 -1.321290 5.333642 -1.078795 -2.026566 8.373932 2.213527 -1.727835 0.266532 -1.249632 0.117655 0.000000 0.000000 0.000000 7.323531 5.126968 -0.755257 -10.565932 19.975810 14.771372 -36.277802 -52.533840 -21.316279 0.000000 0.000000 0.000000 5.477866 2.291181 -1.211079 -1.671351 -6.458749 12.601170 -0.303217 2.986688 -1.470429 -49.609942 -55.378033 -46.966081 0.602315 -49.216547 2.454964 0.000000 0.000000 0.000000 5.424069 2.264009 -1.003930 -3.387225 6.953726 4.203287 -5.342548 -4.869253 6.536639 -47.717228 72.826113 37.716322 -33.587151 45.352217 36.690342 0.000000 0.000000 0.000000 
3.705825 102.475304 -8.419399 0.000000 0.000000 0.000000 -2.835766 -5.491676 -0.323256 -35.587096 23.773662 16.975231 45.934371 1.962225 5.047071 -7.869447 -0.740286 -10.174497 -1.806439 -0.079657 -1.012635 0.000000 0.000000 0.000000 -2.639284 -3.496401 -0.298899 -25.233753 -16.182265 -12.602771 43.460535 5.619825 -4.519084 -13.048981 -10.671210 22.789500 5.326582 1.007764 -14.716250 0.000000 0.000000 0.000000 -4.072699 2.752125 -1.366718 5.105100 -1.131632 -1.921186 8.363190 2.266453 -1.827290 0.214896 -1.285982 0.140350 0.000000 0.000000 0.000000 7.351759 5.217312 -0.822794 -10.576253 19.750006 15.319312 -34.688588 -53.090774 -21.786560 0.000000 0.000000 0.000000 5.593489 2.331832 -1.285000 -1.893876 -5.919156 12.402784 -0.058058 2.983979 -1.131712 -48.905370 -55.884273 -47.034633 0.773631 -48.359956 2.325228 0.000000 0.000000 0.000000 5.345703 2.311191 -1.055266 -3.071342 6.966055 4.183597 -5.661147 -5.007290 6.387872 -47.525460 73.553802 37.526371 -33.472667 44.922738 36.607584 0.000000 0.000000 0.000000 
3.785082 102.443588 -8.467571 0.000000 0.000000 0.000000 -2.917102 -5.572157 -0.357094 -35.577045 23.459109 16.904833 46.040601 1.713614 5.153114 -7.822673 -0.936567 -10.357807 -2.228054 -0.070919 -1.031753 0.000000 0.000000 0.000000 -2.707800 -3.690063 -0.299971 -25.416790 -15.952238 -12.505937 43.639585 5.518857 -4.457040 -12.563859 -11.043002 22.791716 4.939675 0.970333 -14.425655 0.000000 0.000000 0.000000 -4.366551 2.626821 -1.366673 4.750132 -1.167400 -1.792548 8.339115 2.356025 -1.985434 0.113990 -1.266744 0.147022 0.000000 0.000000 0.000000 7.372604 5.319576 -0.962461 -10.487707 19.535777 15.886371 -32.586225 -53.672835 -22.168938 0.000000 0.000000 0.000000 5.746775 2.391016 -1.418135 -2.137865 -5.346136 12.156452 0.074543 2.942141 -0.911356 -48.267687 -56.784793 -47.116052 1.020935 -47.319749 2.224240 0.000000 0.000000 0.000000 5.291190 2.373133 -1.167042 -2.752048 6.908633 4.164908 -5.898843 -5.559835 6.320473 -46.653792 74.373301 36.817827 -33.688211 44.738904 36.884234 0.000000 0.000000 0.000000 
3.857435 102.414658 -8.589329 0.000000 0.000000 0.000000 -3.066293 -5.564838 -0.386512 -35.508828 23.197114 16.771388 46.210031 1.539861 5.199434 -7.835379 -1.043410 -10.367959 -2.628422 -0.072210 -1.011737 0.000000 0.000000 0.000000 -2.791852 -3.758245 -0.334448 -25.593327 -15.651332 -12.424011 43.926839 5.447738 -4.407955 -12.194578 -11.392745 22.811708 4.779828 0.905943 -14.219784 0.000000 0.000000 0.000000 -4.610713 2.337103 -1.335572 4.324345 -1.147404 -1.647287 8.315455 2.491781 -2.165650 0.036473 -1.214488 0.125930 0.000000 0.000000 0.000000 7.349569 5.419800 -1.143422 -10.265187 19.359370 16.336057 -30.565117 -54.351476 -22.594083 0.000000 0.000000 0.000000 5.863658 2.474647 -1.564200 -2.372805 -4.843877 11.876726 0.116921 2.879468 -0.882446 -47.820822 -57.994685 -47.053856 1.349118 -46.393237 2.217178 0.000000 0.000000 0.000000 5.362712 2.458013 -1.304610 -2.468825 6.792740 4.137921 -6.186365 -5.971342 6.378665 -44.969648 74.993906 35.415545 -33.985666 44.648971 37.284124 0.000000 0.000000 0.000000 
3.915340 102.397095 -8.800762 0.000000 0.000000 0.000000 -3.210199 -5.365432 -0.394228 -35.521748 23.037748 16.633952 46.389904 1.497494 5.166335 -7.830757 -1.020050 -10.256044 -2.775836 -0.067013 -0.958982 0.000000 0.000000 0.000000 -2.876762 -3.632679 -0.377007 -25.724711 -15.392953 -12.394375 44.227883 5.462283 -4.400369 -12.142826 -11.618164 22.834287 4.944464 0.826544 -14.189540 0.000000 0.000000 0.000000 -4.800259 1.990650 -1.270750 3.903671 -1.032299 -1.549885 8.358211 2.643828 -2.290228 0.007578 -1.124544 0.101857 0.000000 0.000000 0.000000 7.277849 5.509065 -1.307017 -10.050242 19.137150 16.642084 -29.301826 -55.100523 -23.262796 0.000000 0.000000 0.000000 5.940666 2.566814 -1.656593 -2.557773 -4.555574 11.566557 0.250390 2.828788 -1.003326 -47.578019 -59.319517 -46.807495 1.827769 -45.616839 2.403130 0.000000 0.000000 0.000000 5.583199 2.578597 -1.384240 -2.258716 6.618070 4.092636 -6.429561 -5.830958 6.534904 -42.831724 75.230244 33.411728 -34.187525 44.514788 37.630750 0.000000 0.000000 0.000000 
3.921493 102.392799 -9.082920 0.000000 0.000000 0.000000 -3.257898 -4.958654 -0.360966 -35.627855 22.987922 16.485372 46.442732 1.617952 5.049570 -7.783894 -0.900987 -9.956656 -2.563617 -0.059248 -0.890511 0.000000 0.000000 0.000000 -2.938223 -3.265465 -0.383457 -25.806678 -15.275658 -12.431290 44.446377 5.552425 -4.424585 -12.321369 -11.661290 22.919731 5.243356 0.769345 -14.355063 0.000000 0.000000 0.000000 -4.930895 1.858680 -1.184839 3.595528 -0.808206 -1.615841 8.521961 2.758529 -2.295011 0.057720 -1.018513 0.095381 0.000000 0.000000 0.000000 7.245205 5.588142 -1.378804 -9.934898 18.807402 16.788839 -29.286861 -55.811064 -24.387525 0.000000 0.000000 0.000000 6.063083 2.632361 -1.636561 -2.669002 -4.550202 11.281790 0.409391 2.982502 -1.301657 -47.399337 -60.479481 -46.303758 2.519014 -44.875084 2.853048 0.000000 0.000000 0.000000 5.856320 2.718882 -1.324879 -2.090875 6.345858 3.984514 -6.660409 -5.399787 6.844997 -41.103638 75.168281 31.473532 -34.234380 44.328375 37.857041 0.000000 0.000000 0.000000 
